<?xml version="1.0" encoding="utf-8"?>
<!-- Generator: Adobe Illustrator 26.3.1, SVG Export Plug-In . SVG Version: 6.00 Build 0)  -->
<svg version="1.1" id="Layer_1" xmlns="http://www.w3.org/2000/svg" xmlns:xlink="http://www.w3.org/1999/xlink" x="0px" y="0px"
	 viewBox="0 0 733.3 120.6" style="enable-background:new 0 0 733.3 120.6;" xml:space="preserve">
<style type="text/css">
	.st0{fill:#2A62FF;}
	.st1{fill:#1D3253;}
</style>
<g>
	<path class="st0" d="M100.4,13.8h45.3v106.3h-45.3L100.4,13.8z"/>
	<path class="st0" d="M0,13.8v106.3h100.4L0,13.8z"/>
</g>
<g>
	<path class="st1" d="M262.6,119.2c-1,0-1-2.2-1-48.5c0-11.8-5.4-17-18.2-17c-11.2,0-21.7,5.7-21.7,17.5v48h-20.2V37H221v12.4
		c4.6-10,17.2-14.2,29.9-14.2c21.4,0,31,11.1,31,31.4c0,51.5,0.7,52.7,0.4,52.7H262.6z M359.4,58.3c-4-3.7-10-6.9-19.6-6.9
		c-9,0-15.6,2.7-19.9,6.6c-3.5,3.1-5.6,7.5-6,12.1H364C364.1,65.8,362.5,61.5,359.4,58.3L359.4,58.3z M369.9,112.9
		c-6.9,4.8-16.8,7.6-29.9,7.6c-16.6,0-30.4-4.9-38.1-16.6c-4.6-6.4-7.3-15.3-7.3-26.3c0-10.5,2.7-19.2,7.8-25.7
		c7.6-10.6,20.6-16.9,37.5-16.9c17.8,0,29.9,6.4,37,16.3c6.1,8.7,8.4,21.2,7.3,33.8h-69.9c0.2,4.8,2.2,9.3,5.7,12.6
		c3.9,4,11.2,6.9,20,6.9c7.6,0,13.3-1.8,17-3.9c4.3-2.4,6.4-5.7,6.7-7.8h19.7C381.7,101.1,376.8,108.2,369.9,112.9z M452.4,37H475
		L442.4,77l33.5,42.2h-23.6L430,90.8l-22.7,28.4h-22.4l34-42l-32-40.2h23.6l20.9,26.3L452.4,37z M516,54.6V92
		c0,8.7,3.6,10.9,12.1,10.9c3.7,0,7.4-0.3,11.1-0.9v16.4c-3.6,1-11.1,1.7-18.7,1.7c-13.3,0-24.8-5.2-24.8-22.1V54.6h-13.3V37h13
		c0.6-1.7,0.8-17.6,0.8-17.6l19.6-0.1V37h24.2v17.6H516z M612.5,58.3c-4-3.7-10-6.9-19.6-6.9c-9,0-15.6,2.7-19.9,6.6
		c-3.5,3.1-5.6,7.5-6,12.1h50.1C617.2,65.8,615.6,61.5,612.5,58.3L612.5,58.3z M622.9,112.9c-6.9,4.8-16.8,7.6-29.9,7.6
		c-16.6,0-30.4-4.9-38.2-16.6c-4.6-6.4-7.3-15.3-7.3-26.3c0-10.5,2.7-19.2,7.8-25.7C563,41.3,576,35,592.9,35
		c17.8,0,29.9,6.4,37,16.3c6.1,8.7,8.4,21.2,7.3,33.8h-69.9c0.2,4.8,2.2,9.3,5.7,12.6c3.9,4,11.2,6.9,20,6.9c7.6,0,13.3-1.8,17-3.9
		c4.3-2.4,6.4-5.7,6.7-7.8h19.8C634.7,101.1,629.9,108.2,622.9,112.9z M710.6,119.2l-24.8-40.4L669.9,93v26.2h-20.2V0h20.2v70.9
		l36.7-34h23.8l-30.2,29.5l33.2,52.8H710.6z"/>
</g>
</svg>
